<?xml version="1.0" standalone="no"?>
<!DOCTYPE svg PUBLIC "-//W3C//DTD SVG 20010904//EN"
 "http://www.w3.org/TR/2001/REC-SVG-20010904/DTD/svg10.dtd">
<svg version="1.0" xmlns="http://www.w3.org/2000/svg"
 viewBox="0 0 2600.000000 2600.000000"
 preserveAspectRatio="xMidYMid meet">
<metadata>
Created by potrace 1.15, written by Peter Selinger 2001-2017
</metadata>
<g transform="translate(0.000000,2600.000000) scale(0.100000,-0.100000)"
fill="#000000" stroke="none">
<path d="M1645 19728 c-3 -7 -4 -274 -3 -593 l3 -580 3143 -3 3142 -2 -90
-180 c-49 -99 -90 -182 -90 -185 0 -6 776 -395 788 -395 4 0 93 171 197 380
l190 380 4232 0 c2328 0 4233 -2 4233 -5 0 -3 -41 -86 -90 -185 l-90 -180 390
-195 c214 -107 394 -195 400 -195 5 0 95 171 200 380 l190 380 2653 2 2652 3
0 590 0 590 -11023 3 c-8813 2 -11024 0 -11027 -10z"/>
<path d="M11335 18019 c-267 -34 -538 -169 -744 -371 -125 -122 -140 -146
-492 -760 -105 -183 -192 -334 -194 -336 -1 -2 -62 26 -133 62 -152 76 -193
86 -257 62 -56 -22 -99 -70 -142 -163 -44 -91 -51 -140 -29 -196 23 -61 55
-87 188 -154 l118 -58 -131 -235 c-739 -1329 -1395 -2595 -2021 -3900 -193
-403 -219 -466 -244 -611 -20 -114 -15 -334 10 -449 20 -91 70 -238 103 -305
49 -97 133 -216 205 -288 197 -198 963 -644 1538 -897 320 -141 718 -288 849
-315 96 -20 278 -21 391 -1 321 57 636 256 802 506 77 117 350 646 793 1535
496 996 856 1757 1277 2700 94 209 172 381 173 383 2 2 57 -24 123 -57 134
-67 182 -79 237 -61 61 20 104 67 151 164 48 98 54 142 29 204 -25 59 -52 80
-198 154 -85 42 -137 74 -134 81 3 7 92 217 200 467 212 495 227 535 253 660
25 117 25 371 1 494 -50 248 -149 449 -291 592 -69 68 -251 193 -507 347 -473
284 -985 523 -1464 685 -201 68 -299 81 -460 61z m-275 -1841 c78 -15 381
-121 543 -190 313 -133 620 -305 897 -501 139 -98 202 -166 288 -309 l22 -36
-62 -35 c-35 -19 -91 -49 -124 -67 l-61 -33 -89 90 c-90 91 -161 140 -419 288
-269 155 -660 340 -940 445 -104 39 -156 53 -237 62 -57 6 -104 12 -106 14 -7
4 -42 267 -37 272 10 10 140 20 205 15 36 -2 90 -9 120 -15z m-671 -271 l17
-115 -61 -44 c-33 -25 -77 -65 -97 -89 -58 -71 -417 -717 -678 -1221 -56 -109
-106 -198 -111 -198 -17 0 -159 75 -159 84 0 11 177 345 313 591 254 458 525
916 581 982 43 49 170 147 174 134 2 -5 11 -61 21 -124z m2525 -1179 c7 -39
-9 -186 -25 -237 -33 -100 -279 -685 -429 -1016 -77 -172 -270 -588 -275 -593
-1 -2 -41 16 -88 39 l-85 42 65 136 c300 627 578 1244 603 1338 6 24 11 81 11
128 l0 85 102 55 c56 30 105 55 108 55 4 0 9 -15 13 -32z m-3734 -848 c44 -22
80 -42 80 -45 0 -3 -32 -69 -71 -147 -221 -441 -695 -1486 -730 -1608 -20 -70
-15 -231 10 -324 12 -44 20 -80 19 -82 -2 -1 -41 -12 -88 -24 -47 -11 -92 -23
-101 -26 -42 -12 -75 310 -45 440 18 76 129 346 314 762 197 441 509 1094 524
1094 5 0 44 -18 88 -40z m2725 -1362 c47 -24 84 -45 82 -48 -1 -3 -47 -93
-101 -200 -249 -492 -716 -1337 -846 -1530 -46 -69 -109 -127 -200 -185 -78
-51 -201 -107 -212 -97 -9 10 -80 183 -76 187 2 1 35 16 74 32 184 77 250 148
421 448 223 394 444 803 664 1232 57 112 105 203 106 203 2 0 41 -19 88 -42z
m-3122 -1222 c184 -131 547 -333 817 -454 164 -74 462 -192 521 -206 22 -5 33
-22 69 -108 23 -55 44 -107 47 -115 8 -21 -54 -16 -153 13 -479 138 -981 382
-1409 685 -134 95 -207 165 -181 175 30 11 190 52 209 53 10 1 46 -19 80 -43z"/>
<path d="M20146 17795 c-346 -72 -688 -319 -859 -621 -34 -61 -163 -342 -349
-764 -55 -124 -101 -226 -102 -228 -2 -1 -61 20 -132 47 -159 60 -182 65 -234
51 -70 -19 -115 -71 -155 -178 -39 -102 -43 -144 -20 -199 29 -69 63 -92 233
-154 50 -18 92 -38 92 -42 0 -5 -55 -136 -121 -291 -460 -1067 -969 -2333
-1356 -3376 -173 -465 -376 -1033 -394 -1100 -33 -120 -37 -335 -10 -478 50
-260 164 -485 330 -651 101 -101 179 -151 455 -290 615 -311 1239 -541 1908
-702 156 -38 185 -42 298 -42 350 0 696 170 937 460 86 104 125 183 268 543
544 1371 994 2605 1446 3966 l160 481 130 -48 c145 -55 190 -60 256 -28 53 26
74 55 112 153 41 106 45 131 30 183 -22 80 -65 112 -226 172 -79 30 -143 58
-143 64 0 6 49 166 109 356 238 752 236 745 228 971 -13 346 -135 640 -349
846 -93 90 -156 128 -433 266 -521 261 -1021 445 -1625 599 -142 36 -182 42
-290 45 -81 2 -149 -2 -194 -11z m6 -1891 c390 -81 746 -204 1113 -384 246
-121 390 -209 470 -287 63 -62 125 -143 125 -160 -1 -4 -52 -43 -115 -86
l-115 -78 -55 55 c-78 76 -136 112 -323 200 -311 146 -606 261 -923 360 -269
83 -343 99 -462 99 l-107 1 -10 35 c-34 132 -59 236 -56 239 2 1 34 9 72 16
113 23 247 19 386 -10z m-772 -307 l31 -117 -60 -55 c-32 -31 -73 -77 -90
-103 -58 -91 -390 -876 -621 -1469 l-9 -22 -87 35 c-48 19 -88 35 -90 36 -6 7
277 682 421 1003 263 587 312 677 417 769 29 25 53 44 54 43 1 -1 17 -55 34
-120z m2637 -1067 c-5 -118 -37 -238 -229 -840 -86 -270 -305 -917 -314 -929
-2 -2 -44 11 -93 29 l-90 32 35 97 c102 278 294 832 380 1096 l99 300 1 130 0
130 100 68 99 68 8 -38 c5 -21 7 -85 4 -143z m-3555 -1123 c-1 -9 -30 -89 -63
-179 -248 -670 -543 -1559 -555 -1671 -8 -78 9 -185 46 -290 15 -43 24 -80 20
-82 -25 -16 -176 -65 -186 -61 -16 6 -60 143 -74 228 -14 87 -12 181 4 258 29
131 209 694 371 1160 89 253 250 694 260 710 3 4 44 -7 92 -25 62 -24 87 -38
85 -48z m2778 -1038 c48 -18 79 -36 77 -43 -3 -6 -43 -110 -90 -231 -238 -612
-632 -1522 -705 -1627 -42 -60 -145 -158 -217 -206 -64 -43 -133 -78 -138 -71
-2 2 -25 44 -51 93 -37 69 -45 91 -34 97 7 5 18 9 23 9 6 0 44 22 85 48 85 55
170 137 206 197 66 114 444 1008 660 1562 44 112 84 203 91 203 6 0 48 -14 93
-31z m-2982 -1533 c309 -179 993 -436 1352 -509 l63 -13 54 -100 c73 -132 71
-124 31 -124 -161 0 -715 151 -1025 279 -366 151 -813 395 -781 426 7 7 207
83 221 84 4 1 43 -19 85 -43z"/>
<path d="M6846 16378 c-216 -436 -443 -893 -505 -1015 l-111 -223 390 -195
c214 -107 395 -195 401 -195 10 0 1009 1998 1009 2019 0 9 -768 401 -786 401
-3 0 -182 -357 -398 -792z"/>
<path d="M16117 15993 c-301 -602 -546 -1097 -543 -1101 7 -11 785 -397 789
-392 3 3 251 497 551 1097 l546 1093 -398 199 -398 199 -547 -1095z"/>
<path d="M5217 13115 l-507 -1015 398 -199 398 -199 508 1015 c279 558 506
1016 504 1018 -4 4 -787 395 -790 395 -2 0 -231 -457 -511 -1015z"/>
<path d="M14477 12703 c-301 -602 -546 -1097 -543 -1101 7 -11 785 -397 789
-392 3 3 251 497 551 1097 l546 1093 -398 199 -398 199 -547 -1095z"/>
<path d="M4196 11067 c-28 -45 -999 -2007 -995 -2011 2 -2 181 -92 397 -200
l392 -196 505 1010 c278 556 505 1014 505 1018 0 4 -178 96 -395 204 -394 197
-395 198 -409 175z"/>
<path d="M12835 9420 c-300 -599 -545 -1094 -545 -1100 0 -6 178 -99 396 -208
290 -144 398 -193 402 -183 2 8 247 499 543 1093 297 593 539 1082 539 1086 0
4 -178 96 -395 205 l-395 197 -545 -1090z"/>
<path d="M2425 7520 l-265 -530 398 -199 398 -199 264 528 c145 291 262 531
260 533 -3 3 -182 93 -397 201 l-393 196 -265 -530z"/>
<path d="M11475 6690 l-265 -530 390 -195 c214 -107 394 -195 400 -195 9 0
530 1030 530 1048 0 4 -178 96 -395 205 l-395 197 -265 -530z"/>
</g>
</svg>
